<svg width="1920" height="1080" viewBox="0 0 1920 1080" fill="none" xmlns="http://www.w3.org/2000/svg">
<g filter="url(#filter0_f_183_1597)">
<g filter="url(#filter1_f_183_1597)">
<path d="M52.817 -77.9316C397.551 -139.232 751.665 735.688 737.594 958.598C723.523 1181.51 402.241 1164.79 289.675 1398.84C210.27 1563.95 70.3306 1827.84 52.8169 1998.73L52.8169 2062C50.3213 2042.89 50.4684 2021.65 52.8169 1998.73L52.817 -77.9316Z" fill="url(#paint0_radial_183_1597)"/>
</g>
<g filter="url(#filter2_f_183_1597)" style="mix-blend-mode:lighten">
<path d="M108.817 -7.78877C453.551 -64.8404 807.665 749.442 793.594 956.902C779.523 1164.36 458.241 1148.8 345.675 1366.64C266.27 1520.3 126.331 1765.9 108.817 1924.95L108.817 1983.83C106.321 1966.05 106.468 1946.27 108.817 1924.95L108.817 -7.78877Z" fill="url(#paint1_radial_183_1597)" fill-opacity="0.7"/>
</g>
</g>
<g filter="url(#filter3_f_183_1597)">
<g filter="url(#filter4_f_183_1597)">
<path d="M2746.88 492.257C2531.76 768.519 1683.1 355.416 1544.37 180.369C1405.64 5.32314 1655.55 -197.274 1582.55 -446.52C1531.05 -622.34 1458.42 -912.075 1357.07 -1050.77L1314.72 -1097.79C1329.37 -1085.26 1343.48 -1069.37 1357.07 -1050.77L2746.88 492.257Z" fill="url(#paint2_radial_183_1597)"/>
</g>
<g filter="url(#filter5_f_183_1597)" style="mix-blend-mode:lighten">
<path d="M2658.33 477.618C2440.36 750.723 1632.28 382.676 1503.89 219.109C1375.5 55.5421 1624.64 -147.916 1562.5 -385.109C1518.66 -552.426 1458.27 -828.571 1364.84 -958.47L1325.43 -1002.22C1339.19 -990.679 1352.31 -975.89 1364.84 -958.47L2658.33 477.618Z" fill="url(#paint3_radial_183_1597)" fill-opacity="0.7"/>
</g>
</g>
<g filter="url(#filter6_f_183_1597)">
<g filter="url(#filter7_f_183_1597)">
<path d="M614.068 1394.18C552.768 1049.45 1427.69 695.335 1650.6 709.406C1873.51 723.477 1856.79 1044.76 2090.84 1157.33C2255.95 1236.73 2519.84 1376.67 2690.73 1394.18H2754C2734.89 1396.68 2713.65 1396.53 2690.73 1394.18L614.068 1394.18Z" fill="url(#paint4_radial_183_1597)"/>
</g>
<g filter="url(#filter8_f_183_1597)" style="mix-blend-mode:lighten">
<path d="M684.211 1338.18C627.16 993.449 1441.44 639.335 1648.9 653.406C1856.36 667.477 1840.8 988.759 2058.64 1101.33C2212.3 1180.73 2457.9 1320.67 2616.95 1338.18H2675.83C2658.05 1340.68 2638.27 1340.53 2616.95 1338.18L684.211 1338.18Z" fill="url(#paint5_radial_183_1597)" fill-opacity="0.7"/>
</g>
</g>
<foreignObject x="206" y="-100" width="1872" height="1357"><div xmlns="http://www.w3.org/1999/xhtml" style="backdrop-filter:blur(50px);clip-path:url(#bgblur_0_183_1597_clip_path);height:100%;width:100%"></div></foreignObject><g filter="url(#filter9_i_183_1597)" data-figma-bg-blur-radius="100">
<path d="M306 20C306 8.95428 314.954 0 326 0H1958C1969.05 0 1978 8.95431 1978 20V1137C1978 1148.05 1969.05 1157 1958 1157H326C314.954 1157 306 1148.05 306 1137V20Z" fill="url(#paint6_linear_183_1597)" fill-opacity="0.4"/>
</g>
<defs>
<filter id="filter0_f_183_1597" x="-53" y="-185" width="951" height="2351" filterUnits="userSpaceOnUse" color-interpolation-filters="sRGB">
<feFlood flood-opacity="0" result="BackgroundImageFix"/>
<feBlend mode="normal" in="SourceGraphic" in2="BackgroundImageFix" result="shape"/>
<feGaussianBlur stdDeviation="52" result="effect1_foregroundBlur_183_1597"/>
</filter>
<filter id="filter1_f_183_1597" x="21.7792" y="-110.221" width="745.442" height="2201.44" filterUnits="userSpaceOnUse" color-interpolation-filters="sRGB">
<feFlood flood-opacity="0" result="BackgroundImageFix"/>
<feBlend mode="normal" in="SourceGraphic" in2="BackgroundImageFix" result="shape"/>
<feGaussianBlur stdDeviation="14.6104" result="effect1_foregroundBlur_183_1597"/>
</filter>
<filter id="filter2_f_183_1597" x="-302.091" y="-419.735" width="1505.18" height="2812.66" filterUnits="userSpaceOnUse" color-interpolation-filters="sRGB">
<feFlood flood-opacity="0" result="BackgroundImageFix"/>
<feBlend mode="normal" in="SourceGraphic" in2="BackgroundImageFix" result="shape"/>
<feGaussianBlur stdDeviation="204.545" result="effect1_foregroundBlur_183_1597"/>
</filter>
<filter id="filter3_f_183_1597" x="1210.72" y="-1201.79" width="1640.16" height="1890.65" filterUnits="userSpaceOnUse" color-interpolation-filters="sRGB">
<feFlood flood-opacity="0" result="BackgroundImageFix"/>
<feBlend mode="normal" in="SourceGraphic" in2="BackgroundImageFix" result="shape"/>
<feGaussianBlur stdDeviation="52" result="effect1_foregroundBlur_183_1597"/>
</filter>
<filter id="filter4_f_183_1597" x="1285.5" y="-1127.01" width="1490.6" height="1741.09" filterUnits="userSpaceOnUse" color-interpolation-filters="sRGB">
<feFlood flood-opacity="0" result="BackgroundImageFix"/>
<feBlend mode="normal" in="SourceGraphic" in2="BackgroundImageFix" result="shape"/>
<feGaussianBlur stdDeviation="14.6104" result="effect1_foregroundBlur_183_1597"/>
</filter>
<filter id="filter5_f_183_1597" x="916.339" y="-1411.31" width="2151.08" height="2395.9" filterUnits="userSpaceOnUse" color-interpolation-filters="sRGB">
<feFlood flood-opacity="0" result="BackgroundImageFix"/>
<feBlend mode="normal" in="SourceGraphic" in2="BackgroundImageFix" result="shape"/>
<feGaussianBlur stdDeviation="204.545" result="effect1_foregroundBlur_183_1597"/>
</filter>
<filter id="filter6_f_183_1597" x="507" y="549" width="2351" height="951" filterUnits="userSpaceOnUse" color-interpolation-filters="sRGB">
<feFlood flood-opacity="0" result="BackgroundImageFix"/>
<feBlend mode="normal" in="SourceGraphic" in2="BackgroundImageFix" result="shape"/>
<feGaussianBlur stdDeviation="52" result="effect1_foregroundBlur_183_1597"/>
</filter>
<filter id="filter7_f_183_1597" x="581.779" y="679.779" width="2201.44" height="745.442" filterUnits="userSpaceOnUse" color-interpolation-filters="sRGB">
<feFlood flood-opacity="0" result="BackgroundImageFix"/>
<feBlend mode="normal" in="SourceGraphic" in2="BackgroundImageFix" result="shape"/>
<feGaussianBlur stdDeviation="14.6104" result="effect1_foregroundBlur_183_1597"/>
</filter>
<filter id="filter8_f_183_1597" x="272.265" y="243.909" width="2812.66" height="1505.18" filterUnits="userSpaceOnUse" color-interpolation-filters="sRGB">
<feFlood flood-opacity="0" result="BackgroundImageFix"/>
<feBlend mode="normal" in="SourceGraphic" in2="BackgroundImageFix" result="shape"/>
<feGaussianBlur stdDeviation="204.545" result="effect1_foregroundBlur_183_1597"/>
</filter>
<filter id="filter9_i_183_1597" x="206" y="-100" width="1872" height="1357" filterUnits="userSpaceOnUse" color-interpolation-filters="sRGB">
<feFlood flood-opacity="0" result="BackgroundImageFix"/>
<feBlend mode="normal" in="SourceGraphic" in2="BackgroundImageFix" result="shape"/>
<feColorMatrix in="SourceAlpha" type="matrix" values="0 0 0 0 0 0 0 0 0 0 0 0 0 0 0 0 0 0 127 0" result="hardAlpha"/>
<feOffset dy="2"/>
<feGaussianBlur stdDeviation="2"/>
<feComposite in2="hardAlpha" operator="arithmetic" k2="-1" k3="1"/>
<feColorMatrix type="matrix" values="0 0 0 0 1 0 0 0 0 1 0 0 0 0 1 0 0 0 0.16 0"/>
<feBlend mode="normal" in2="shape" result="effect1_innerShadow_183_1597"/>
</filter>
<clipPath id="bgblur_0_183_1597_clip_path" transform="translate(-206 100)"><path d="M306 20C306 8.95428 314.954 0 326 0H1958C1969.05 0 1978 8.95431 1978 20V1137C1978 1148.05 1969.05 1157 1958 1157H326C314.954 1157 306 1148.05 306 1137V20Z"/>
</clipPath><radialGradient id="paint0_radial_183_1597" cx="0" cy="0" r="1" gradientTransform="matrix(774.051 341.131 -307.951 2414.54 51 798.067)" gradientUnits="userSpaceOnUse">
<stop offset="0.112961" stop-color="white" stop-opacity="0.93"/>
<stop offset="0.250637" stop-color="#D0C9FA" stop-opacity="0.770383"/>
<stop offset="0.369792" stop-color="#654DFD" stop-opacity="0.770383"/>
<stop offset="0.493846" stop-color="#2400FF" stop-opacity="0.770383"/>
<stop offset="0.71875" stop-color="#0C0054" stop-opacity="0.877197"/>
<stop offset="0.885417" stop-color="#02000F"/>
</radialGradient>
<radialGradient id="paint1_radial_183_1597" cx="0" cy="0" r="1" gradientTransform="matrix(774.051 317.488 -307.951 2247.2 107 807.497)" gradientUnits="userSpaceOnUse">
<stop offset="0.112961" stop-color="white" stop-opacity="0.93"/>
<stop offset="0.250637" stop-color="#D0C9FA" stop-opacity="0.770383"/>
<stop offset="0.369792" stop-color="#654DFD" stop-opacity="0.770383"/>
<stop offset="0.493846" stop-color="#2400FF" stop-opacity="0.770383"/>
<stop offset="0.71875" stop-color="#0C0054" stop-opacity="0.877197"/>
<stop offset="0.885417" stop-color="#02000F"/>
</radialGradient>
<radialGradient id="paint2_radial_183_1597" cx="0" cy="0" r="1" gradientTransform="matrix(-803.449 264.565 -1387.12 -2000.19 2161.97 -159.856)" gradientUnits="userSpaceOnUse">
<stop offset="0.112961" stop-color="white" stop-opacity="0.93"/>
<stop offset="0.250637" stop-color="#D0C9FA" stop-opacity="0.770383"/>
<stop offset="0.369792" stop-color="#654DFD" stop-opacity="0.770383"/>
<stop offset="0.493846" stop-color="#2400FF" stop-opacity="0.770383"/>
<stop offset="0.71875" stop-color="#0C0054" stop-opacity="0.877197"/>
<stop offset="0.885417" stop-color="#02000F"/>
</radialGradient>
<radialGradient id="paint3_radial_183_1597" cx="0" cy="0" r="1" gradientTransform="matrix(-787.626 282.132 -1275.13 -1875.84 2114.05 -129.384)" gradientUnits="userSpaceOnUse">
<stop offset="0.112961" stop-color="white" stop-opacity="0.93"/>
<stop offset="0.250637" stop-color="#D0C9FA" stop-opacity="0.770383"/>
<stop offset="0.369792" stop-color="#654DFD" stop-opacity="0.770383"/>
<stop offset="0.493846" stop-color="#2400FF" stop-opacity="0.770383"/>
<stop offset="0.71875" stop-color="#0C0054" stop-opacity="0.877197"/>
<stop offset="0.885417" stop-color="#02000F"/>
</radialGradient>
<radialGradient id="paint4_radial_183_1597" cx="0" cy="0" r="1" gradientTransform="matrix(341.131 -774.051 2414.54 307.951 1490.07 1396)" gradientUnits="userSpaceOnUse">
<stop offset="0.112961" stop-color="white" stop-opacity="0.93"/>
<stop offset="0.250637" stop-color="#D0C9FA" stop-opacity="0.770383"/>
<stop offset="0.369792" stop-color="#654DFD" stop-opacity="0.770383"/>
<stop offset="0.493846" stop-color="#2400FF" stop-opacity="0.770383"/>
<stop offset="0.71875" stop-color="#0C0054" stop-opacity="0.877197"/>
<stop offset="0.885417" stop-color="#02000F"/>
</radialGradient>
<radialGradient id="paint5_radial_183_1597" cx="0" cy="0" r="1" gradientTransform="matrix(317.488 -774.051 2247.2 307.951 1499.5 1340)" gradientUnits="userSpaceOnUse">
<stop offset="0.112961" stop-color="white" stop-opacity="0.93"/>
<stop offset="0.250637" stop-color="#D0C9FA" stop-opacity="0.770383"/>
<stop offset="0.369792" stop-color="#654DFD" stop-opacity="0.770383"/>
<stop offset="0.493846" stop-color="#2400FF" stop-opacity="0.770383"/>
<stop offset="0.71875" stop-color="#0C0054" stop-opacity="0.877197"/>
<stop offset="0.885417" stop-color="#02000F"/>
</radialGradient>
<linearGradient id="paint6_linear_183_1597" x1="1978" y1="541.177" x2="307.824" y2="597.63" gradientUnits="userSpaceOnUse">
<stop stop-color="#161618"/>
<stop offset="0.166667"/>
<stop offset="1" stop-color="#1A1A1D" stop-opacity="0.01"/>
</linearGradient>
</defs>
</svg>