<svg width="27" height="25" viewBox="0 0 27 25" fill="none" xmlns="http://www.w3.org/2000/svg">
<path d="M2.39127 15.4744L18.3257 1.00218C19.5833 0.962384 21.6791 1.45925 23.2437 3.23292M2.39127 15.4744L1.48343 21.2627M2.39127 15.4744C3.76359 15.4369 5.93368 15.7819 7.51024 17.0175M9.47323 21.2627L25.2109 8.14182C24.9709 5.90478 24.2082 4.32627 23.2437 3.23292M9.47323 21.2627L3.37487 22.545M9.47323 21.2627C9.47323 19.2591 8.64566 17.9073 7.51024 17.0175M1.48343 21.2627L1.21094 23L3.37487 22.545M1.48343 21.2627C1.98276 21.2814 3.06012 21.564 3.37487 22.545M7.51024 17.0175L23.2437 3.23292" stroke="white" stroke-opacity="0.53" stroke-width="2" stroke-linecap="round"/>
</svg>
